<?xml version="1.0" encoding="utf-8"?>
<!-- Generator: Adobe Illustrator 16.0.3, SVG Export Plug-In . SVG Version: 6.00 Build 0)  -->
<!DOCTYPE svg PUBLIC "-//W3C//DTD SVG 1.1//EN" "http://www.w3.org/Graphics/SVG/1.1/DTD/svg11.dtd">
<svg version="1.1" xmlns="http://www.w3.org/2000/svg" xmlns:xlink="http://www.w3.org/1999/xlink" x="0px" y="0px" width="70px"
	 height="70px" viewBox="0 0 70 70" enable-background="new 0 0 70 70" xml:space="preserve">
<g id="Switch">
	<path fill="none" stroke="#fff" d="M52.375,24.421C52.22,15.18,44.653,7.71,35.376,7.71c-9.305,0-16.887,7.514-17,16.792
		c0,0.07,0,18.396,0.001,18.487c0.147,9.249,7.716,16.728,16.999,16.728c9.287,0,16.86-7.486,17-16.742L52.375,24.421z"/>
	<path fill="#fff" stroke="#fff" d="M52.396,24.711c0,9.374-7.626,17-17,17c-9.374,0-17-7.626-17-17c0-9.374,7.626-17,17-17
		C44.77,7.711,52.396,15.337,52.396,24.711"/>
</g>
</svg>

