<?xml version="1.0" encoding="utf-8"?>
<!-- Generator: Adobe Illustrator 16.0.3, SVG Export Plug-In . SVG Version: 6.00 Build 0)  -->
<!DOCTYPE svg PUBLIC "-//W3C//DTD SVG 1.1//EN" "http://www.w3.org/Graphics/SVG/1.1/DTD/svg11.dtd">
<svg version="1.1" id="Hide" xmlns="http://www.w3.org/2000/svg" xmlns:xlink="http://www.w3.org/1999/xlink" x="0px" y="0px"
	 width="42.375px" height="64.167px" viewBox="-0.375 0 42.375 64.167" enable-background="new -0.375 0 42.375 64.167"
	 xml:space="preserve">
<path fill="none" stroke="#FFFFFF" stroke-width="1.2052" d="M0.338,43.282c0.188,11.137,9.309,20.14,20.487,20.14
	c11.214,0,20.353-9.056,20.487-20.236c0-0.086,0-22.172-0.001-22.281C41.133,9.757,32.013,0.746,20.825,0.746
	c-11.194,0-20.319,9.021-20.489,20.176L0.338,43.282z"/>
<path fill="none" stroke="#FFFFFF" stroke-width="1.2052" d="M0.313,42.933c0-11.297,9.191-20.488,20.487-20.488
	c11.299,0,20.488,9.191,20.488,20.488c0,11.297-9.189,20.486-20.488,20.486C9.504,63.419,0.313,54.23,0.313,42.933"/>
</svg>
