<?xml version="1.0" encoding="utf-8"?>
<!-- Generator: Adobe Illustrator 16.0.3, SVG Export Plug-In . SVG Version: 6.00 Build 0)  -->
<!DOCTYPE svg PUBLIC "-//W3C//DTD SVG 1.1//EN" "http://www.w3.org/Graphics/SVG/1.1/DTD/svg11.dtd">
<svg version="1.1" id="Hide" xmlns="http://www.w3.org/2000/svg" xmlns:xlink="http://www.w3.org/1999/xlink" x="0px" y="0px"
	 width="42.375px" height="64.167px" viewBox="-0.375 0 42.375 64.167" enable-background="new -0.375 0 42.375 64.167"
	 xml:space="preserve">
<g>
	<path fill="none" stroke="#FFFFFF" stroke-width="1.2052" d="M41.287,20.885C41.1,9.749,31.979,0.746,20.8,0.746
		c-11.214,0-20.353,9.056-20.487,20.237c0,0.085,0,22.171,0.001,22.281C0.492,54.41,9.612,63.421,20.8,63.421
		c11.194,0,20.319-9.021,20.489-20.176L41.287,20.885z"/>
	<path fill="#FFFFFF" stroke="#FFFFFF" stroke-width="1.2052" d="M41.313,21.234c0,11.297-9.191,20.488-20.487,20.488
		c-11.299,0-20.488-9.191-20.488-20.488S9.526,0.748,20.825,0.748C32.121,0.748,41.313,9.938,41.313,21.234"/>
</g>
</svg>
